<svg width="371" height="322" xmlns="http://www.w3.org/2000/svg" xmlns:xlink="http://www.w3.org/1999/xlink" xml:space="preserve" overflow="hidden"><defs><clipPath id="clip0"><rect x="1874" y="1117" width="371" height="322"/></clipPath></defs><g clip-path="url(#clip0)" transform="translate(-1874 -1117)"><path d="M2191.47 1201.04C2177.08 1201.04 2165.42 1212.71 2165.42 1227.11 2165.42 1241.5 2177.08 1253.18 2191.47 1253.18 2205.86 1253.18 2217.52 1241.5 2217.52 1227.11 2217.52 1212.71 2205.86 1201.04 2191.47 1201.04ZM1874 1117 1942.99 1117 1942.99 1155.39 1912.36 1155.39 1912.36 1235.89 1912.36 1235.89C1912.36 1280.35 1948.37 1316.39 1992.8 1316.39 2037.23 1316.39 2073.24 1280.35 2073.24 1235.89L2073.24 1235.89 2073.24 1235.89 2073.24 1155.39 2042.61 1155.39 2042.61 1117 2111.6 1117 2111.6 1235.89C2111.6 1285.13 2081.68 1327.38 2039.04 1345.43L2018.52 1351.81 2030.35 1371.32C2045.1 1389.21 2067.43 1400.61 2092.42 1400.61 2136.85 1400.61 2172.86 1364.57 2172.86 1320.11L2172.86 1320.11 2172.86 1320.11 2172.86 1275.96 2170.63 1275.51C2151.42 1267.38 2137.94 1248.34 2137.94 1226.15 2137.94 1196.56 2161.9 1172.58 2191.47 1172.58 2221.03 1172.58 2245 1196.56 2245 1226.15 2245 1248.34 2231.52 1267.38 2212.31 1275.51L2211.22 1275.73 2211.22 1320.11C2211.22 1385.77 2158.03 1439 2092.42 1439 2042.19 1439 1999.24 1407.8 1981.86 1363.71L1978.79 1353.36 1968.86 1352.36C1914.72 1341.27 1874 1293.34 1874 1235.89Z" fill="#465F8B" fill-rule="evenodd"/></g></svg>